<mxfile host="app.diagrams.net" modified="2023-10-25T23:08:51.585Z" agent="Mozilla/5.0 (Windows NT 10.0; Win64; x64) AppleWebKit/537.36 (KHTML, like Gecko) Chrome/109.0.0.0 Safari/537.36" etag="uUZEmZBFQjAJAAHxHAYD" version="22.0.8" type="device">
  <diagram id="jCWlN-yvyexg0f4gqDt7" name="Страница 1">
    <mxGraphModel dx="1244" dy="497" grid="1" gridSize="10" guides="1" tooltips="1" connect="1" arrows="1" fold="1" page="1" pageScale="1" pageWidth="827" pageHeight="1169" math="0" shadow="0">
      <root>
        <mxCell id="0" />
        <mxCell id="1" parent="0" />
        <mxCell id="OV2K4uKmrnv4dOPww8TZ-153" value="Слой базы данных" style="swimlane;horizontal=0;fillStyle=solid;fillColor=#FFFFFF;swimlaneFillColor=#A168D5;" parent="1" vertex="1">
          <mxGeometry x="40" y="1055" width="1320" height="200" as="geometry" />
        </mxCell>
        <mxCell id="OV2K4uKmrnv4dOPww8TZ-172" style="edgeStyle=orthogonalEdgeStyle;rounded=0;orthogonalLoop=1;jettySize=auto;html=1;entryX=0.5;entryY=1;entryDx=0;entryDy=0;entryPerimeter=0;exitX=0.5;exitY=1;exitDx=0;exitDy=0;exitPerimeter=0;" parent="OV2K4uKmrnv4dOPww8TZ-153" source="OV2K4uKmrnv4dOPww8TZ-154" target="OV2K4uKmrnv4dOPww8TZ-155" edge="1">
          <mxGeometry relative="1" as="geometry">
            <Array as="points">
              <mxPoint x="119" y="160" />
              <mxPoint x="295" y="160" />
            </Array>
          </mxGeometry>
        </mxCell>
        <mxCell id="OV2K4uKmrnv4dOPww8TZ-174" style="edgeStyle=orthogonalEdgeStyle;rounded=0;orthogonalLoop=1;jettySize=auto;html=1;entryX=0.5;entryY=1;entryDx=0;entryDy=0;entryPerimeter=0;" parent="OV2K4uKmrnv4dOPww8TZ-153" source="OV2K4uKmrnv4dOPww8TZ-154" target="OV2K4uKmrnv4dOPww8TZ-157" edge="1">
          <mxGeometry relative="1" as="geometry">
            <Array as="points">
              <mxPoint x="119" y="160" />
              <mxPoint x="477" y="160" />
            </Array>
          </mxGeometry>
        </mxCell>
        <mxCell id="OV2K4uKmrnv4dOPww8TZ-175" style="edgeStyle=orthogonalEdgeStyle;rounded=0;orthogonalLoop=1;jettySize=auto;html=1;entryX=0.54;entryY=1.018;entryDx=0;entryDy=0;entryPerimeter=0;" parent="OV2K4uKmrnv4dOPww8TZ-153" source="OV2K4uKmrnv4dOPww8TZ-154" target="OV2K4uKmrnv4dOPww8TZ-156" edge="1">
          <mxGeometry relative="1" as="geometry">
            <Array as="points">
              <mxPoint x="119" y="160" />
              <mxPoint x="664" y="160" />
            </Array>
          </mxGeometry>
        </mxCell>
        <mxCell id="OV2K4uKmrnv4dOPww8TZ-176" style="edgeStyle=orthogonalEdgeStyle;rounded=0;orthogonalLoop=1;jettySize=auto;html=1;entryX=0.5;entryY=1;entryDx=0;entryDy=0;entryPerimeter=0;" parent="OV2K4uKmrnv4dOPww8TZ-153" source="OV2K4uKmrnv4dOPww8TZ-154" target="OV2K4uKmrnv4dOPww8TZ-158" edge="1">
          <mxGeometry relative="1" as="geometry">
            <Array as="points">
              <mxPoint x="119" y="160" />
              <mxPoint x="843" y="160" />
            </Array>
          </mxGeometry>
        </mxCell>
        <mxCell id="OV2K4uKmrnv4dOPww8TZ-177" style="edgeStyle=orthogonalEdgeStyle;rounded=0;orthogonalLoop=1;jettySize=auto;html=1;entryX=0.529;entryY=1.028;entryDx=0;entryDy=0;entryPerimeter=0;" parent="OV2K4uKmrnv4dOPww8TZ-153" source="OV2K4uKmrnv4dOPww8TZ-154" target="OV2K4uKmrnv4dOPww8TZ-161" edge="1">
          <mxGeometry relative="1" as="geometry">
            <Array as="points">
              <mxPoint x="120" y="160" />
              <mxPoint x="1240" y="160" />
            </Array>
          </mxGeometry>
        </mxCell>
        <mxCell id="OV2K4uKmrnv4dOPww8TZ-154" value="Пользователь" style="shape=cylinder3;whiteSpace=wrap;html=1;boundedLbl=1;backgroundOutline=1;size=15;fillStyle=solid;fillColor=#FFFFFF;gradientColor=#B3B3B3;" parent="OV2K4uKmrnv4dOPww8TZ-153" vertex="1">
          <mxGeometry x="53" y="61" width="133" height="60" as="geometry" />
        </mxCell>
        <mxCell id="OV2K4uKmrnv4dOPww8TZ-155" value="Проекты" style="shape=cylinder3;whiteSpace=wrap;html=1;boundedLbl=1;backgroundOutline=1;size=15;fillStyle=solid;fillColor=#FFFFFF;gradientColor=#B3B3B3;" parent="OV2K4uKmrnv4dOPww8TZ-153" vertex="1">
          <mxGeometry x="228.5" y="61" width="133" height="60" as="geometry" />
        </mxCell>
        <mxCell id="OV2K4uKmrnv4dOPww8TZ-157" value="Фрилансеры" style="shape=cylinder3;whiteSpace=wrap;html=1;boundedLbl=1;backgroundOutline=1;size=15;fillStyle=solid;fillColor=#FFFFFF;gradientColor=#B3B3B3;" parent="OV2K4uKmrnv4dOPww8TZ-153" vertex="1">
          <mxGeometry x="411" y="61" width="133" height="60" as="geometry" />
        </mxCell>
        <mxCell id="OV2K4uKmrnv4dOPww8TZ-156" value="Чаты" style="shape=cylinder3;whiteSpace=wrap;html=1;boundedLbl=1;backgroundOutline=1;size=15;fillStyle=solid;fillColor=#FFFFFF;gradientColor=#B3B3B3;" parent="OV2K4uKmrnv4dOPww8TZ-153" vertex="1">
          <mxGeometry x="592" y="60" width="133" height="60" as="geometry" />
        </mxCell>
        <mxCell id="OV2K4uKmrnv4dOPww8TZ-158" value="Платежи" style="shape=cylinder3;whiteSpace=wrap;html=1;boundedLbl=1;backgroundOutline=1;size=15;fillStyle=solid;fillColor=#FFFFFF;gradientColor=#B3B3B3;" parent="OV2K4uKmrnv4dOPww8TZ-153" vertex="1">
          <mxGeometry x="777" y="61" width="133" height="60" as="geometry" />
        </mxCell>
        <mxCell id="OV2K4uKmrnv4dOPww8TZ-161" value="Контент" style="shape=cylinder3;whiteSpace=wrap;html=1;boundedLbl=1;backgroundOutline=1;size=15;fillStyle=solid;fillColor=#FFFFFF;gradientColor=#B3B3B3;" parent="OV2K4uKmrnv4dOPww8TZ-153" vertex="1">
          <mxGeometry x="1170" y="60" width="133" height="60" as="geometry" />
        </mxCell>
        <mxCell id="s_q3_aRJQ0bNJkqGjv6M-32" value="Рецензии" style="shape=cylinder3;whiteSpace=wrap;html=1;boundedLbl=1;backgroundOutline=1;size=15;fillStyle=solid;fillColor=#FFFFFF;gradientColor=#B3B3B3;" parent="OV2K4uKmrnv4dOPww8TZ-153" vertex="1">
          <mxGeometry x="970" y="60" width="133" height="60" as="geometry" />
        </mxCell>
        <mxCell id="s_q3_aRJQ0bNJkqGjv6M-35" style="edgeStyle=orthogonalEdgeStyle;rounded=0;orthogonalLoop=1;jettySize=auto;html=1;entryX=0.5;entryY=1;entryDx=0;entryDy=0;entryPerimeter=0;" parent="OV2K4uKmrnv4dOPww8TZ-153" target="s_q3_aRJQ0bNJkqGjv6M-32" edge="1">
          <mxGeometry relative="1" as="geometry">
            <Array as="points">
              <mxPoint x="120" y="159" />
              <mxPoint x="1036" y="159" />
            </Array>
            <mxPoint x="120" y="120" as="sourcePoint" />
            <mxPoint x="1055.94" y="120" as="targetPoint" />
          </mxGeometry>
        </mxCell>
        <mxCell id="OV2K4uKmrnv4dOPww8TZ-1" value="Пользовательский слой" style="swimlane;horizontal=0;fillStyle=solid;swimlaneFillColor=#717BD8;" parent="1" vertex="1">
          <mxGeometry x="40" y="310" width="1120" height="220" as="geometry" />
        </mxCell>
        <mxCell id="B7G4OD0_tB4IIWVI6EO--6" style="edgeStyle=orthogonalEdgeStyle;rounded=0;orthogonalLoop=1;jettySize=auto;html=1;entryX=0.5;entryY=0;entryDx=0;entryDy=0;" parent="OV2K4uKmrnv4dOPww8TZ-1" source="OV2K4uKmrnv4dOPww8TZ-7" target="OV2K4uKmrnv4dOPww8TZ-22" edge="1">
          <mxGeometry relative="1" as="geometry">
            <Array as="points">
              <mxPoint x="124" y="110" />
              <mxPoint x="300" y="110" />
            </Array>
          </mxGeometry>
        </mxCell>
        <mxCell id="B7G4OD0_tB4IIWVI6EO--7" style="edgeStyle=orthogonalEdgeStyle;rounded=0;orthogonalLoop=1;jettySize=auto;html=1;entryX=0.5;entryY=0;entryDx=0;entryDy=0;" parent="OV2K4uKmrnv4dOPww8TZ-1" source="OV2K4uKmrnv4dOPww8TZ-7" target="OV2K4uKmrnv4dOPww8TZ-23" edge="1">
          <mxGeometry relative="1" as="geometry">
            <Array as="points">
              <mxPoint x="124" y="110" />
              <mxPoint x="476" y="110" />
            </Array>
          </mxGeometry>
        </mxCell>
        <mxCell id="B7G4OD0_tB4IIWVI6EO--8" style="edgeStyle=orthogonalEdgeStyle;rounded=0;orthogonalLoop=1;jettySize=auto;html=1;entryX=0.5;entryY=0;entryDx=0;entryDy=0;" parent="OV2K4uKmrnv4dOPww8TZ-1" source="OV2K4uKmrnv4dOPww8TZ-7" target="OV2K4uKmrnv4dOPww8TZ-24" edge="1">
          <mxGeometry relative="1" as="geometry">
            <Array as="points">
              <mxPoint x="124" y="110" />
              <mxPoint x="655" y="110" />
            </Array>
          </mxGeometry>
        </mxCell>
        <mxCell id="B7G4OD0_tB4IIWVI6EO--9" style="edgeStyle=orthogonalEdgeStyle;rounded=0;orthogonalLoop=1;jettySize=auto;html=1;entryX=0.5;entryY=0;entryDx=0;entryDy=0;" parent="OV2K4uKmrnv4dOPww8TZ-1" source="OV2K4uKmrnv4dOPww8TZ-7" target="OV2K4uKmrnv4dOPww8TZ-21" edge="1">
          <mxGeometry relative="1" as="geometry">
            <Array as="points">
              <mxPoint x="124" y="110" />
              <mxPoint x="843" y="110" />
            </Array>
          </mxGeometry>
        </mxCell>
        <mxCell id="OV2K4uKmrnv4dOPww8TZ-7" value="Аутентификация и авторизация пользователей" style="rounded=0;whiteSpace=wrap;html=1;" parent="OV2K4uKmrnv4dOPww8TZ-1" vertex="1">
          <mxGeometry x="64" y="30" width="120" height="50" as="geometry" />
        </mxCell>
        <mxCell id="OV2K4uKmrnv4dOPww8TZ-21" value="Модуль чатов" style="rounded=0;whiteSpace=wrap;html=1;" parent="OV2K4uKmrnv4dOPww8TZ-1" vertex="1">
          <mxGeometry x="783" y="151" width="120" height="30" as="geometry" />
        </mxCell>
        <mxCell id="OV2K4uKmrnv4dOPww8TZ-22" value="Модуль проектов" style="rounded=0;whiteSpace=wrap;html=1;" parent="OV2K4uKmrnv4dOPww8TZ-1" vertex="1">
          <mxGeometry x="240" y="151" width="120" height="30" as="geometry" />
        </mxCell>
        <mxCell id="OV2K4uKmrnv4dOPww8TZ-23" value="Модуль заявок" style="rounded=0;whiteSpace=wrap;html=1;" parent="OV2K4uKmrnv4dOPww8TZ-1" vertex="1">
          <mxGeometry x="416" y="151" width="120" height="30" as="geometry" />
        </mxCell>
        <mxCell id="OV2K4uKmrnv4dOPww8TZ-24" value="Модуль отзывов" style="rounded=0;whiteSpace=wrap;html=1;" parent="OV2K4uKmrnv4dOPww8TZ-1" vertex="1">
          <mxGeometry x="595" y="151" width="120" height="30" as="geometry" />
        </mxCell>
        <mxCell id="OV2K4uKmrnv4dOPww8TZ-25" value="Модуль управления" style="rounded=0;whiteSpace=wrap;html=1;" parent="OV2K4uKmrnv4dOPww8TZ-1" vertex="1">
          <mxGeometry x="961" y="151" width="120" height="30" as="geometry" />
        </mxCell>
        <mxCell id="B7G4OD0_tB4IIWVI6EO--4" style="edgeStyle=orthogonalEdgeStyle;rounded=0;orthogonalLoop=1;jettySize=auto;html=1;entryX=0.5;entryY=0;entryDx=0;entryDy=0;" parent="1" target="OV2K4uKmrnv4dOPww8TZ-7" edge="1">
          <mxGeometry relative="1" as="geometry">
            <mxPoint x="164" y="280" as="sourcePoint" />
          </mxGeometry>
        </mxCell>
        <mxCell id="B7G4OD0_tB4IIWVI6EO--5" style="edgeStyle=orthogonalEdgeStyle;rounded=0;orthogonalLoop=1;jettySize=auto;html=1;entryX=0.5;entryY=0;entryDx=0;entryDy=0;" parent="1" target="OV2K4uKmrnv4dOPww8TZ-25" edge="1">
          <mxGeometry relative="1" as="geometry">
            <mxPoint x="1061" y="280" as="sourcePoint" />
          </mxGeometry>
        </mxCell>
        <mxCell id="B7G4OD0_tB4IIWVI6EO--10" style="edgeStyle=orthogonalEdgeStyle;rounded=0;orthogonalLoop=1;jettySize=auto;html=1;" parent="1" target="OV2K4uKmrnv4dOPww8TZ-21" edge="1">
          <mxGeometry relative="1" as="geometry">
            <mxPoint x="1050" y="280" as="sourcePoint" />
            <Array as="points">
              <mxPoint x="1050" y="420" />
              <mxPoint x="883" y="420" />
            </Array>
          </mxGeometry>
        </mxCell>
        <mxCell id="OV2K4uKmrnv4dOPww8TZ-44" value="&#xa;Модуль выкладывания видео&#xa;" style="swimlane;horizontal=0;swimlaneFillColor=#62DA9A;" parent="1" vertex="1">
          <mxGeometry x="40" y="570" width="1320" height="450" as="geometry" />
        </mxCell>
        <mxCell id="OV2K4uKmrnv4dOPww8TZ-45" value="Подсистема &#xa;пользователя" style="swimlane;startSize=30;" parent="OV2K4uKmrnv4dOPww8TZ-44" vertex="1">
          <mxGeometry x="50" y="49" width="135" height="341" as="geometry">
            <mxRectangle x="50" y="49" width="120" height="40" as="alternateBounds" />
          </mxGeometry>
        </mxCell>
        <mxCell id="OV2K4uKmrnv4dOPww8TZ-93" style="edgeStyle=orthogonalEdgeStyle;rounded=0;orthogonalLoop=1;jettySize=auto;html=1;entryX=0.5;entryY=0;entryDx=0;entryDy=0;" parent="OV2K4uKmrnv4dOPww8TZ-45" source="OV2K4uKmrnv4dOPww8TZ-46" target="OV2K4uKmrnv4dOPww8TZ-49" edge="1">
          <mxGeometry relative="1" as="geometry" />
        </mxCell>
        <mxCell id="OV2K4uKmrnv4dOPww8TZ-46" value="Модуль пользователя" style="rounded=0;whiteSpace=wrap;html=1;" parent="OV2K4uKmrnv4dOPww8TZ-45" vertex="1">
          <mxGeometry x="7" y="50" width="120" height="30" as="geometry" />
        </mxCell>
        <mxCell id="OV2K4uKmrnv4dOPww8TZ-94" style="edgeStyle=orthogonalEdgeStyle;rounded=0;orthogonalLoop=1;jettySize=auto;html=1;entryX=0.5;entryY=0;entryDx=0;entryDy=0;" parent="OV2K4uKmrnv4dOPww8TZ-45" source="OV2K4uKmrnv4dOPww8TZ-49" target="OV2K4uKmrnv4dOPww8TZ-50" edge="1">
          <mxGeometry relative="1" as="geometry" />
        </mxCell>
        <mxCell id="OV2K4uKmrnv4dOPww8TZ-49" value="Модуль публикации проектов" style="rounded=0;whiteSpace=wrap;html=1;" parent="OV2K4uKmrnv4dOPww8TZ-45" vertex="1">
          <mxGeometry x="7" y="100" width="120" height="30" as="geometry" />
        </mxCell>
        <mxCell id="OV2K4uKmrnv4dOPww8TZ-95" style="edgeStyle=orthogonalEdgeStyle;rounded=0;orthogonalLoop=1;jettySize=auto;html=1;entryX=0.5;entryY=0;entryDx=0;entryDy=0;" parent="OV2K4uKmrnv4dOPww8TZ-45" source="OV2K4uKmrnv4dOPww8TZ-50" target="OV2K4uKmrnv4dOPww8TZ-51" edge="1">
          <mxGeometry relative="1" as="geometry" />
        </mxCell>
        <mxCell id="OV2K4uKmrnv4dOPww8TZ-50" value="Модуль поиска фрилансеров" style="rounded=0;whiteSpace=wrap;html=1;" parent="OV2K4uKmrnv4dOPww8TZ-45" vertex="1">
          <mxGeometry x="7" y="150" width="120" height="30" as="geometry" />
        </mxCell>
        <mxCell id="OV2K4uKmrnv4dOPww8TZ-96" style="edgeStyle=orthogonalEdgeStyle;rounded=0;orthogonalLoop=1;jettySize=auto;html=1;entryX=0.5;entryY=0;entryDx=0;entryDy=0;" parent="OV2K4uKmrnv4dOPww8TZ-45" source="OV2K4uKmrnv4dOPww8TZ-51" target="OV2K4uKmrnv4dOPww8TZ-52" edge="1">
          <mxGeometry relative="1" as="geometry" />
        </mxCell>
        <mxCell id="OV2K4uKmrnv4dOPww8TZ-51" value="Модуль общения с пользователями" style="rounded=0;whiteSpace=wrap;html=1;" parent="OV2K4uKmrnv4dOPww8TZ-45" vertex="1">
          <mxGeometry x="7" y="200" width="120" height="30" as="geometry" />
        </mxCell>
        <mxCell id="OV2K4uKmrnv4dOPww8TZ-52" value="Модуль оплаты и транзакций" style="rounded=0;whiteSpace=wrap;html=1;" parent="OV2K4uKmrnv4dOPww8TZ-45" vertex="1">
          <mxGeometry x="7" y="250" width="120" height="30" as="geometry" />
        </mxCell>
        <mxCell id="s_q3_aRJQ0bNJkqGjv6M-1" value="Модуль оценки и отзывов" style="rounded=0;whiteSpace=wrap;html=1;" parent="OV2K4uKmrnv4dOPww8TZ-45" vertex="1">
          <mxGeometry x="7.5" y="301" width="120" height="30" as="geometry" />
        </mxCell>
        <mxCell id="OV2K4uKmrnv4dOPww8TZ-53" value="Подсистема &#xa;публикации проектов" style="swimlane;startSize=30;" parent="OV2K4uKmrnv4dOPww8TZ-44" vertex="1">
          <mxGeometry x="226.5" y="49" width="135" height="341" as="geometry">
            <mxRectangle x="212.5" y="49" width="160" height="40" as="alternateBounds" />
          </mxGeometry>
        </mxCell>
        <mxCell id="OV2K4uKmrnv4dOPww8TZ-97" style="edgeStyle=orthogonalEdgeStyle;rounded=0;orthogonalLoop=1;jettySize=auto;html=1;entryX=0.5;entryY=0;entryDx=0;entryDy=0;" parent="OV2K4uKmrnv4dOPww8TZ-53" source="OV2K4uKmrnv4dOPww8TZ-54" target="OV2K4uKmrnv4dOPww8TZ-55" edge="1">
          <mxGeometry relative="1" as="geometry" />
        </mxCell>
        <mxCell id="OV2K4uKmrnv4dOPww8TZ-54" value="Модуль создания задания" style="rounded=0;whiteSpace=wrap;html=1;" parent="OV2K4uKmrnv4dOPww8TZ-53" vertex="1">
          <mxGeometry x="7" y="50" width="120" height="30" as="geometry" />
        </mxCell>
        <mxCell id="OV2K4uKmrnv4dOPww8TZ-98" style="edgeStyle=orthogonalEdgeStyle;rounded=0;orthogonalLoop=1;jettySize=auto;html=1;entryX=0.5;entryY=0;entryDx=0;entryDy=0;" parent="OV2K4uKmrnv4dOPww8TZ-53" source="OV2K4uKmrnv4dOPww8TZ-55" target="OV2K4uKmrnv4dOPww8TZ-56" edge="1">
          <mxGeometry relative="1" as="geometry" />
        </mxCell>
        <mxCell id="OV2K4uKmrnv4dOPww8TZ-55" value="&lt;font style=&quot;font-size: 11px;&quot;&gt;Модуль определения категорий&lt;/font&gt;" style="rounded=0;whiteSpace=wrap;html=1;" parent="OV2K4uKmrnv4dOPww8TZ-53" vertex="1">
          <mxGeometry x="7" y="100" width="120" height="30" as="geometry" />
        </mxCell>
        <mxCell id="OV2K4uKmrnv4dOPww8TZ-99" style="edgeStyle=orthogonalEdgeStyle;rounded=0;orthogonalLoop=1;jettySize=auto;html=1;" parent="OV2K4uKmrnv4dOPww8TZ-53" source="OV2K4uKmrnv4dOPww8TZ-56" target="OV2K4uKmrnv4dOPww8TZ-57" edge="1">
          <mxGeometry relative="1" as="geometry" />
        </mxCell>
        <mxCell id="OV2K4uKmrnv4dOPww8TZ-56" value="&lt;font style=&quot;font-size: 11px;&quot;&gt;Модуль прикрепления файлов и описания&lt;/font&gt;" style="rounded=0;whiteSpace=wrap;html=1;" parent="OV2K4uKmrnv4dOPww8TZ-53" vertex="1">
          <mxGeometry x="7" y="150" width="120" height="30" as="geometry" />
        </mxCell>
        <mxCell id="OV2K4uKmrnv4dOPww8TZ-100" style="edgeStyle=orthogonalEdgeStyle;rounded=0;orthogonalLoop=1;jettySize=auto;html=1;entryX=0.5;entryY=0;entryDx=0;entryDy=0;" parent="OV2K4uKmrnv4dOPww8TZ-53" source="OV2K4uKmrnv4dOPww8TZ-57" target="OV2K4uKmrnv4dOPww8TZ-58" edge="1">
          <mxGeometry relative="1" as="geometry" />
        </mxCell>
        <mxCell id="OV2K4uKmrnv4dOPww8TZ-57" value="&lt;font style=&quot;font-size: 11px;&quot;&gt;Модуль установления сроков&lt;/font&gt;" style="rounded=0;whiteSpace=wrap;html=1;" parent="OV2K4uKmrnv4dOPww8TZ-53" vertex="1">
          <mxGeometry x="7" y="200" width="120" height="30" as="geometry" />
        </mxCell>
        <mxCell id="OV2K4uKmrnv4dOPww8TZ-58" value="&lt;font style=&quot;font-size: 11px;&quot;&gt;Модуль установления бюджета&lt;/font&gt;" style="rounded=0;whiteSpace=wrap;html=1;" parent="OV2K4uKmrnv4dOPww8TZ-53" vertex="1">
          <mxGeometry x="7" y="250" width="120" height="30" as="geometry" />
        </mxCell>
        <mxCell id="OV2K4uKmrnv4dOPww8TZ-148" style="edgeStyle=orthogonalEdgeStyle;rounded=0;orthogonalLoop=1;jettySize=auto;html=1;exitX=0.5;exitY=0;exitDx=0;exitDy=0;entryX=0.5;entryY=0;entryDx=0;entryDy=0;" parent="OV2K4uKmrnv4dOPww8TZ-44" target="OV2K4uKmrnv4dOPww8TZ-67" edge="1">
          <mxGeometry relative="1" as="geometry">
            <mxPoint x="468.5" y="49" as="sourcePoint" />
            <Array as="points">
              <mxPoint x="470" y="50" />
              <mxPoint x="470" y="29" />
              <mxPoint x="653" y="29" />
            </Array>
          </mxGeometry>
        </mxCell>
        <mxCell id="OV2K4uKmrnv4dOPww8TZ-149" style="edgeStyle=orthogonalEdgeStyle;rounded=0;orthogonalLoop=1;jettySize=auto;html=1;exitX=0.5;exitY=0;exitDx=0;exitDy=0;entryX=0.5;entryY=0;entryDx=0;entryDy=0;" parent="OV2K4uKmrnv4dOPww8TZ-44" source="OV2K4uKmrnv4dOPww8TZ-67" target="OV2K4uKmrnv4dOPww8TZ-73" edge="1">
          <mxGeometry relative="1" as="geometry" />
        </mxCell>
        <mxCell id="OV2K4uKmrnv4dOPww8TZ-67" value="Подсистема общения&#xa; с пользователями" style="swimlane;startSize=30;" parent="OV2K4uKmrnv4dOPww8TZ-44" vertex="1">
          <mxGeometry x="578" y="49" width="150" height="341" as="geometry">
            <mxRectangle x="212.5" y="49" width="160" height="40" as="alternateBounds" />
          </mxGeometry>
        </mxCell>
        <mxCell id="OV2K4uKmrnv4dOPww8TZ-122" style="edgeStyle=orthogonalEdgeStyle;rounded=0;orthogonalLoop=1;jettySize=auto;html=1;entryX=0.5;entryY=0;entryDx=0;entryDy=0;" parent="OV2K4uKmrnv4dOPww8TZ-67" source="OV2K4uKmrnv4dOPww8TZ-68" target="OV2K4uKmrnv4dOPww8TZ-69" edge="1">
          <mxGeometry relative="1" as="geometry" />
        </mxCell>
        <mxCell id="OV2K4uKmrnv4dOPww8TZ-68" value="Модуль просмотра чата" style="rounded=0;whiteSpace=wrap;html=1;" parent="OV2K4uKmrnv4dOPww8TZ-67" vertex="1">
          <mxGeometry x="12.5" y="41" width="120" height="40" as="geometry" />
        </mxCell>
        <mxCell id="OV2K4uKmrnv4dOPww8TZ-69" value="Модуль отправки сообщений" style="rounded=0;whiteSpace=wrap;html=1;" parent="OV2K4uKmrnv4dOPww8TZ-67" vertex="1">
          <mxGeometry x="12.5" y="104" width="120" height="30" as="geometry" />
        </mxCell>
        <mxCell id="4KX7OS3BSDdVtBE7u6EJ-14" value="Модуль уведомлений" style="rounded=0;whiteSpace=wrap;html=1;" vertex="1" parent="OV2K4uKmrnv4dOPww8TZ-67">
          <mxGeometry x="15" y="161" width="120" height="30" as="geometry" />
        </mxCell>
        <mxCell id="4KX7OS3BSDdVtBE7u6EJ-15" style="edgeStyle=orthogonalEdgeStyle;rounded=0;orthogonalLoop=1;jettySize=auto;html=1;entryX=0.5;entryY=0;entryDx=0;entryDy=0;exitX=0.5;exitY=1;exitDx=0;exitDy=0;" edge="1" parent="OV2K4uKmrnv4dOPww8TZ-67" source="OV2K4uKmrnv4dOPww8TZ-69" target="4KX7OS3BSDdVtBE7u6EJ-14">
          <mxGeometry relative="1" as="geometry">
            <mxPoint x="272" y="197" as="sourcePoint" />
            <mxPoint x="273" y="223" as="targetPoint" />
          </mxGeometry>
        </mxCell>
        <mxCell id="OV2K4uKmrnv4dOPww8TZ-73" value="Подсистема &#xa;оплаты и транзакций" style="swimlane;startSize=30;" parent="OV2K4uKmrnv4dOPww8TZ-44" vertex="1">
          <mxGeometry x="773" y="49" width="135" height="341" as="geometry">
            <mxRectangle x="212.5" y="49" width="160" height="40" as="alternateBounds" />
          </mxGeometry>
        </mxCell>
        <mxCell id="OV2K4uKmrnv4dOPww8TZ-74" value="&lt;font style=&quot;font-size: 11px;&quot;&gt;Модуль управления счетами и кошельками&lt;/font&gt;" style="rounded=0;whiteSpace=wrap;html=1;" parent="OV2K4uKmrnv4dOPww8TZ-73" vertex="1">
          <mxGeometry x="7" y="50" width="120" height="30" as="geometry" />
        </mxCell>
        <mxCell id="OV2K4uKmrnv4dOPww8TZ-126" style="edgeStyle=orthogonalEdgeStyle;rounded=0;orthogonalLoop=1;jettySize=auto;html=1;" parent="OV2K4uKmrnv4dOPww8TZ-73" source="OV2K4uKmrnv4dOPww8TZ-75" target="OV2K4uKmrnv4dOPww8TZ-76" edge="1">
          <mxGeometry relative="1" as="geometry" />
        </mxCell>
        <mxCell id="OV2K4uKmrnv4dOPww8TZ-75" value="Модуль управления транзакциями" style="rounded=0;whiteSpace=wrap;html=1;" parent="OV2K4uKmrnv4dOPww8TZ-73" vertex="1">
          <mxGeometry x="7.5" y="101" width="120" height="30" as="geometry" />
        </mxCell>
        <mxCell id="OV2K4uKmrnv4dOPww8TZ-127" style="edgeStyle=orthogonalEdgeStyle;rounded=0;orthogonalLoop=1;jettySize=auto;html=1;" parent="OV2K4uKmrnv4dOPww8TZ-73" source="OV2K4uKmrnv4dOPww8TZ-76" target="OV2K4uKmrnv4dOPww8TZ-77" edge="1">
          <mxGeometry relative="1" as="geometry" />
        </mxCell>
        <mxCell id="OV2K4uKmrnv4dOPww8TZ-76" value="&lt;font style=&quot;font-size: 10px;&quot;&gt;Модуль управления комиссиями и услугами&lt;/font&gt;" style="rounded=0;whiteSpace=wrap;html=1;" parent="OV2K4uKmrnv4dOPww8TZ-73" vertex="1">
          <mxGeometry x="7" y="157" width="120" height="30" as="geometry" />
        </mxCell>
        <mxCell id="OV2K4uKmrnv4dOPww8TZ-77" value="Модуль уведомлений" style="rounded=0;whiteSpace=wrap;html=1;" parent="OV2K4uKmrnv4dOPww8TZ-73" vertex="1">
          <mxGeometry x="7.5" y="213" width="120" height="30" as="geometry" />
        </mxCell>
        <mxCell id="s_q3_aRJQ0bNJkqGjv6M-39" value="&lt;font style=&quot;font-size: 12px;&quot;&gt;Модуль разрешения конфликтов&lt;/font&gt;" style="rounded=0;whiteSpace=wrap;html=1;" parent="OV2K4uKmrnv4dOPww8TZ-73" vertex="1">
          <mxGeometry x="7" y="271" width="120" height="30" as="geometry" />
        </mxCell>
        <mxCell id="s_q3_aRJQ0bNJkqGjv6M-40" style="edgeStyle=orthogonalEdgeStyle;rounded=0;orthogonalLoop=1;jettySize=auto;html=1;exitX=0.457;exitY=1;exitDx=0;exitDy=0;exitPerimeter=0;entryX=0.5;entryY=0;entryDx=0;entryDy=0;" parent="OV2K4uKmrnv4dOPww8TZ-73" source="OV2K4uKmrnv4dOPww8TZ-77" target="s_q3_aRJQ0bNJkqGjv6M-39" edge="1">
          <mxGeometry relative="1" as="geometry">
            <mxPoint x="77" y="197" as="sourcePoint" />
            <mxPoint x="77" y="223" as="targetPoint" />
          </mxGeometry>
        </mxCell>
        <mxCell id="4KX7OS3BSDdVtBE7u6EJ-3" style="edgeStyle=orthogonalEdgeStyle;rounded=0;orthogonalLoop=1;jettySize=auto;html=1;entryX=0.5;entryY=0;entryDx=0;entryDy=0;exitX=0.5;exitY=1;exitDx=0;exitDy=0;" edge="1" parent="OV2K4uKmrnv4dOPww8TZ-73" source="OV2K4uKmrnv4dOPww8TZ-74" target="OV2K4uKmrnv4dOPww8TZ-75">
          <mxGeometry relative="1" as="geometry">
            <mxPoint x="78" y="141" as="sourcePoint" />
            <mxPoint x="77" y="167" as="targetPoint" />
          </mxGeometry>
        </mxCell>
        <mxCell id="OV2K4uKmrnv4dOPww8TZ-144" style="edgeStyle=orthogonalEdgeStyle;rounded=0;orthogonalLoop=1;jettySize=auto;html=1;" parent="OV2K4uKmrnv4dOPww8TZ-44" source="OV2K4uKmrnv4dOPww8TZ-78" edge="1">
          <mxGeometry relative="1" as="geometry">
            <mxPoint x="130" y="390" as="targetPoint" />
            <Array as="points">
              <mxPoint x="1021" y="420" />
              <mxPoint x="130" y="420" />
              <mxPoint x="130" y="390" />
            </Array>
          </mxGeometry>
        </mxCell>
        <mxCell id="OV2K4uKmrnv4dOPww8TZ-78" value="Подсистема &#xa;администрирования &#xa;и контроля" style="swimlane;startSize=41;" parent="OV2K4uKmrnv4dOPww8TZ-44" vertex="1">
          <mxGeometry x="1150" y="60" width="135" height="341" as="geometry">
            <mxRectangle x="1150" y="60" width="160" height="40" as="alternateBounds" />
          </mxGeometry>
        </mxCell>
        <mxCell id="OV2K4uKmrnv4dOPww8TZ-129" style="edgeStyle=orthogonalEdgeStyle;rounded=0;orthogonalLoop=1;jettySize=auto;html=1;" parent="OV2K4uKmrnv4dOPww8TZ-78" source="OV2K4uKmrnv4dOPww8TZ-79" target="OV2K4uKmrnv4dOPww8TZ-80" edge="1">
          <mxGeometry relative="1" as="geometry" />
        </mxCell>
        <mxCell id="OV2K4uKmrnv4dOPww8TZ-79" value="Модуль администрации" style="rounded=0;whiteSpace=wrap;html=1;" parent="OV2K4uKmrnv4dOPww8TZ-78" vertex="1">
          <mxGeometry x="7" y="61" width="120" height="30" as="geometry" />
        </mxCell>
        <mxCell id="OV2K4uKmrnv4dOPww8TZ-80" value="Модуль контроля контента" style="rounded=0;whiteSpace=wrap;html=1;" parent="OV2K4uKmrnv4dOPww8TZ-78" vertex="1">
          <mxGeometry x="7.5" y="111" width="120" height="30" as="geometry" />
        </mxCell>
        <mxCell id="OV2K4uKmrnv4dOPww8TZ-134" style="edgeStyle=orthogonalEdgeStyle;rounded=0;orthogonalLoop=1;jettySize=auto;html=1;entryX=0.5;entryY=0;entryDx=0;entryDy=0;" parent="OV2K4uKmrnv4dOPww8TZ-78" source="OV2K4uKmrnv4dOPww8TZ-81" target="OV2K4uKmrnv4dOPww8TZ-82" edge="1">
          <mxGeometry relative="1" as="geometry" />
        </mxCell>
        <mxCell id="OV2K4uKmrnv4dOPww8TZ-81" value="Модуль контроля жалоб" style="rounded=0;whiteSpace=wrap;html=1;" parent="OV2K4uKmrnv4dOPww8TZ-78" vertex="1">
          <mxGeometry x="7" y="163" width="120" height="30" as="geometry" />
        </mxCell>
        <mxCell id="OV2K4uKmrnv4dOPww8TZ-82" value="Модуль блокировки пользователей" style="rounded=0;whiteSpace=wrap;html=1;" parent="OV2K4uKmrnv4dOPww8TZ-78" vertex="1">
          <mxGeometry x="7.5" y="213" width="120" height="30" as="geometry" />
        </mxCell>
        <mxCell id="OV2K4uKmrnv4dOPww8TZ-147" style="edgeStyle=orthogonalEdgeStyle;rounded=0;orthogonalLoop=1;jettySize=auto;html=1;exitX=0.589;exitY=-0.002;exitDx=0;exitDy=0;exitPerimeter=0;" parent="OV2K4uKmrnv4dOPww8TZ-44" source="OV2K4uKmrnv4dOPww8TZ-45" edge="1">
          <mxGeometry relative="1" as="geometry">
            <mxPoint x="130" y="50" as="sourcePoint" />
            <Array as="points">
              <mxPoint x="130" y="29" />
              <mxPoint x="300" y="29" />
            </Array>
            <mxPoint x="300" y="49" as="targetPoint" />
          </mxGeometry>
        </mxCell>
        <mxCell id="s_q3_aRJQ0bNJkqGjv6M-5" value="Подсистема &#xa;оценки и отзывов" style="swimlane;startSize=30;" parent="OV2K4uKmrnv4dOPww8TZ-44" vertex="1">
          <mxGeometry x="960" y="49" width="135" height="341" as="geometry">
            <mxRectangle x="212.5" y="49" width="160" height="40" as="alternateBounds" />
          </mxGeometry>
        </mxCell>
        <mxCell id="s_q3_aRJQ0bNJkqGjv6M-6" style="edgeStyle=orthogonalEdgeStyle;rounded=0;orthogonalLoop=1;jettySize=auto;html=1;entryX=0.5;entryY=0;entryDx=0;entryDy=0;" parent="s_q3_aRJQ0bNJkqGjv6M-5" source="s_q3_aRJQ0bNJkqGjv6M-7" target="s_q3_aRJQ0bNJkqGjv6M-9" edge="1">
          <mxGeometry relative="1" as="geometry">
            <Array as="points">
              <mxPoint x="67" y="101" />
            </Array>
          </mxGeometry>
        </mxCell>
        <mxCell id="s_q3_aRJQ0bNJkqGjv6M-7" value="Модуль просмотра проектов" style="rounded=0;whiteSpace=wrap;html=1;" parent="s_q3_aRJQ0bNJkqGjv6M-5" vertex="1">
          <mxGeometry x="7" y="50" width="120" height="30" as="geometry" />
        </mxCell>
        <mxCell id="s_q3_aRJQ0bNJkqGjv6M-8" style="edgeStyle=orthogonalEdgeStyle;rounded=0;orthogonalLoop=1;jettySize=auto;html=1;" parent="s_q3_aRJQ0bNJkqGjv6M-5" source="s_q3_aRJQ0bNJkqGjv6M-9" target="s_q3_aRJQ0bNJkqGjv6M-11" edge="1">
          <mxGeometry relative="1" as="geometry" />
        </mxCell>
        <mxCell id="s_q3_aRJQ0bNJkqGjv6M-9" value="Модуль оценки проектов" style="rounded=0;whiteSpace=wrap;html=1;" parent="s_q3_aRJQ0bNJkqGjv6M-5" vertex="1">
          <mxGeometry x="7.5" y="101" width="120" height="30" as="geometry" />
        </mxCell>
        <mxCell id="s_q3_aRJQ0bNJkqGjv6M-10" style="edgeStyle=orthogonalEdgeStyle;rounded=0;orthogonalLoop=1;jettySize=auto;html=1;" parent="s_q3_aRJQ0bNJkqGjv6M-5" source="s_q3_aRJQ0bNJkqGjv6M-11" target="s_q3_aRJQ0bNJkqGjv6M-12" edge="1">
          <mxGeometry relative="1" as="geometry" />
        </mxCell>
        <mxCell id="s_q3_aRJQ0bNJkqGjv6M-11" value="Модуль отзывов" style="rounded=0;whiteSpace=wrap;html=1;" parent="s_q3_aRJQ0bNJkqGjv6M-5" vertex="1">
          <mxGeometry x="7" y="157" width="120" height="30" as="geometry" />
        </mxCell>
        <mxCell id="s_q3_aRJQ0bNJkqGjv6M-12" value="Модуль уведомлений" style="rounded=0;whiteSpace=wrap;html=1;" parent="s_q3_aRJQ0bNJkqGjv6M-5" vertex="1">
          <mxGeometry x="7.5" y="213" width="120" height="30" as="geometry" />
        </mxCell>
        <mxCell id="s_q3_aRJQ0bNJkqGjv6M-16" style="edgeStyle=orthogonalEdgeStyle;rounded=0;orthogonalLoop=1;jettySize=auto;html=1;entryX=0.5;entryY=0;entryDx=0;entryDy=0;" parent="OV2K4uKmrnv4dOPww8TZ-44" target="s_q3_aRJQ0bNJkqGjv6M-5" edge="1">
          <mxGeometry relative="1" as="geometry">
            <mxPoint x="840" y="29" as="sourcePoint" />
            <mxPoint x="1024" y="30" as="targetPoint" />
            <Array as="points">
              <mxPoint x="840" y="29" />
              <mxPoint x="1028" y="29" />
            </Array>
          </mxGeometry>
        </mxCell>
        <mxCell id="s_q3_aRJQ0bNJkqGjv6M-18" value="Подсистема поиска&#xa;фрилансеров" style="swimlane;startSize=30;" parent="OV2K4uKmrnv4dOPww8TZ-44" vertex="1">
          <mxGeometry x="400" y="49" width="135" height="341" as="geometry">
            <mxRectangle x="212.5" y="49" width="160" height="40" as="alternateBounds" />
          </mxGeometry>
        </mxCell>
        <mxCell id="s_q3_aRJQ0bNJkqGjv6M-19" style="edgeStyle=orthogonalEdgeStyle;rounded=0;orthogonalLoop=1;jettySize=auto;html=1;entryX=0.5;entryY=0;entryDx=0;entryDy=0;" parent="s_q3_aRJQ0bNJkqGjv6M-18" source="s_q3_aRJQ0bNJkqGjv6M-20" target="s_q3_aRJQ0bNJkqGjv6M-22" edge="1">
          <mxGeometry relative="1" as="geometry" />
        </mxCell>
        <mxCell id="s_q3_aRJQ0bNJkqGjv6M-20" value="&amp;nbsp;Модуль поиска по категориям" style="rounded=0;whiteSpace=wrap;html=1;" parent="s_q3_aRJQ0bNJkqGjv6M-18" vertex="1">
          <mxGeometry x="7" y="50" width="120" height="30" as="geometry" />
        </mxCell>
        <mxCell id="s_q3_aRJQ0bNJkqGjv6M-21" style="edgeStyle=orthogonalEdgeStyle;rounded=0;orthogonalLoop=1;jettySize=auto;html=1;entryX=0.5;entryY=0;entryDx=0;entryDy=0;" parent="s_q3_aRJQ0bNJkqGjv6M-18" source="s_q3_aRJQ0bNJkqGjv6M-22" target="s_q3_aRJQ0bNJkqGjv6M-24" edge="1">
          <mxGeometry relative="1" as="geometry" />
        </mxCell>
        <mxCell id="s_q3_aRJQ0bNJkqGjv6M-22" value="&lt;font style=&quot;font-size: 11px;&quot;&gt;&amp;nbsp;Модуль фильтрации результатов&lt;/font&gt;" style="rounded=0;whiteSpace=wrap;html=1;" parent="s_q3_aRJQ0bNJkqGjv6M-18" vertex="1">
          <mxGeometry x="7" y="100" width="120" height="30" as="geometry" />
        </mxCell>
        <mxCell id="s_q3_aRJQ0bNJkqGjv6M-23" style="edgeStyle=orthogonalEdgeStyle;rounded=0;orthogonalLoop=1;jettySize=auto;html=1;" parent="s_q3_aRJQ0bNJkqGjv6M-18" source="s_q3_aRJQ0bNJkqGjv6M-24" target="s_q3_aRJQ0bNJkqGjv6M-26" edge="1">
          <mxGeometry relative="1" as="geometry" />
        </mxCell>
        <mxCell id="s_q3_aRJQ0bNJkqGjv6M-24" value="&lt;font style=&quot;font-size: 11px;&quot;&gt;Модуль сравнения профилей&lt;/font&gt;" style="rounded=0;whiteSpace=wrap;html=1;" parent="s_q3_aRJQ0bNJkqGjv6M-18" vertex="1">
          <mxGeometry x="7" y="150" width="120" height="30" as="geometry" />
        </mxCell>
        <mxCell id="s_q3_aRJQ0bNJkqGjv6M-25" style="edgeStyle=orthogonalEdgeStyle;rounded=0;orthogonalLoop=1;jettySize=auto;html=1;entryX=0.5;entryY=0;entryDx=0;entryDy=0;" parent="s_q3_aRJQ0bNJkqGjv6M-18" source="s_q3_aRJQ0bNJkqGjv6M-26" target="s_q3_aRJQ0bNJkqGjv6M-28" edge="1">
          <mxGeometry relative="1" as="geometry" />
        </mxCell>
        <mxCell id="s_q3_aRJQ0bNJkqGjv6M-26" value="&lt;font style=&quot;font-size: 11px;&quot;&gt;Модуль уведомлений&lt;/font&gt;" style="rounded=0;whiteSpace=wrap;html=1;" parent="s_q3_aRJQ0bNJkqGjv6M-18" vertex="1">
          <mxGeometry x="7" y="200" width="120" height="30" as="geometry" />
        </mxCell>
        <mxCell id="s_q3_aRJQ0bNJkqGjv6M-28" value="&lt;font style=&quot;font-size: 11px;&quot;&gt;Модуль чатов и коммуникаций&lt;/font&gt;" style="rounded=0;whiteSpace=wrap;html=1;" parent="s_q3_aRJQ0bNJkqGjv6M-18" vertex="1">
          <mxGeometry x="7" y="250" width="120" height="30" as="geometry" />
        </mxCell>
        <mxCell id="s_q3_aRJQ0bNJkqGjv6M-30" style="edgeStyle=orthogonalEdgeStyle;rounded=0;orthogonalLoop=1;jettySize=auto;html=1;exitX=0.589;exitY=-0.002;exitDx=0;exitDy=0;exitPerimeter=0;" parent="OV2K4uKmrnv4dOPww8TZ-44" edge="1">
          <mxGeometry relative="1" as="geometry">
            <mxPoint x="300" y="48" as="sourcePoint" />
            <Array as="points">
              <mxPoint x="300" y="29" />
              <mxPoint x="470" y="29" />
            </Array>
            <mxPoint x="470" y="49" as="targetPoint" />
          </mxGeometry>
        </mxCell>
        <mxCell id="s_q3_aRJQ0bNJkqGjv6M-38" style="edgeStyle=none;rounded=0;orthogonalLoop=1;jettySize=auto;html=1;entryX=0.5;entryY=0;entryDx=0;entryDy=0;entryPerimeter=0;" parent="OV2K4uKmrnv4dOPww8TZ-44" edge="1">
          <mxGeometry relative="1" as="geometry">
            <mxPoint x="1030" y="390" as="sourcePoint" />
            <mxPoint x="1032" y="546" as="targetPoint" />
          </mxGeometry>
        </mxCell>
        <mxCell id="OV2K4uKmrnv4dOPww8TZ-143" style="edgeStyle=orthogonalEdgeStyle;rounded=0;orthogonalLoop=1;jettySize=auto;html=1;" parent="1" source="OV2K4uKmrnv4dOPww8TZ-25" target="OV2K4uKmrnv4dOPww8TZ-78" edge="1">
          <mxGeometry relative="1" as="geometry">
            <Array as="points" />
            <mxPoint x="1065" y="508" as="sourcePoint" />
          </mxGeometry>
        </mxCell>
        <mxCell id="OV2K4uKmrnv4dOPww8TZ-164" style="edgeStyle=none;rounded=0;orthogonalLoop=1;jettySize=auto;html=1;entryX=0.537;entryY=0;entryDx=0;entryDy=0;entryPerimeter=0;" parent="1" target="OV2K4uKmrnv4dOPww8TZ-161" edge="1">
          <mxGeometry relative="1" as="geometry">
            <mxPoint x="1281" y="970" as="sourcePoint" />
            <mxPoint x="1070" y="1130" as="targetPoint" />
          </mxGeometry>
        </mxCell>
        <mxCell id="OV2K4uKmrnv4dOPww8TZ-165" style="edgeStyle=none;rounded=0;orthogonalLoop=1;jettySize=auto;html=1;entryX=0.5;entryY=0;entryDx=0;entryDy=0;entryPerimeter=0;" parent="1" source="OV2K4uKmrnv4dOPww8TZ-73" target="OV2K4uKmrnv4dOPww8TZ-158" edge="1">
          <mxGeometry relative="1" as="geometry" />
        </mxCell>
        <mxCell id="OV2K4uKmrnv4dOPww8TZ-166" style="edgeStyle=none;rounded=0;orthogonalLoop=1;jettySize=auto;html=1;entryX=0.5;entryY=0;entryDx=0;entryDy=0;entryPerimeter=0;" parent="1" source="OV2K4uKmrnv4dOPww8TZ-67" target="OV2K4uKmrnv4dOPww8TZ-156" edge="1">
          <mxGeometry relative="1" as="geometry" />
        </mxCell>
        <mxCell id="OV2K4uKmrnv4dOPww8TZ-167" style="edgeStyle=none;rounded=0;orthogonalLoop=1;jettySize=auto;html=1;entryX=0.469;entryY=-0.004;entryDx=0;entryDy=0;entryPerimeter=0;" parent="1" target="OV2K4uKmrnv4dOPww8TZ-157" edge="1">
          <mxGeometry relative="1" as="geometry">
            <mxPoint x="490" y="1130" as="targetPoint" />
            <mxPoint x="511.04866824005376" y="960" as="sourcePoint" />
          </mxGeometry>
        </mxCell>
        <mxCell id="OV2K4uKmrnv4dOPww8TZ-168" style="edgeStyle=none;rounded=0;orthogonalLoop=1;jettySize=auto;html=1;entryX=0.5;entryY=0;entryDx=0;entryDy=0;entryPerimeter=0;" parent="1" source="OV2K4uKmrnv4dOPww8TZ-53" target="OV2K4uKmrnv4dOPww8TZ-155" edge="1">
          <mxGeometry relative="1" as="geometry" />
        </mxCell>
        <mxCell id="OV2K4uKmrnv4dOPww8TZ-170" style="edgeStyle=none;rounded=0;orthogonalLoop=1;jettySize=auto;html=1;" parent="1" source="OV2K4uKmrnv4dOPww8TZ-45" target="OV2K4uKmrnv4dOPww8TZ-154" edge="1">
          <mxGeometry relative="1" as="geometry" />
        </mxCell>
        <mxCell id="B7G4OD0_tB4IIWVI6EO--20" style="edgeStyle=orthogonalEdgeStyle;rounded=0;orthogonalLoop=1;jettySize=auto;html=1;entryX=0.5;entryY=0;entryDx=0;entryDy=0;" parent="1" source="OV2K4uKmrnv4dOPww8TZ-23" target="OV2K4uKmrnv4dOPww8TZ-45" edge="1">
          <mxGeometry relative="1" as="geometry">
            <Array as="points">
              <mxPoint x="516" y="550" />
              <mxPoint x="158" y="550" />
            </Array>
          </mxGeometry>
        </mxCell>
        <mxCell id="B7G4OD0_tB4IIWVI6EO--21" style="edgeStyle=orthogonalEdgeStyle;rounded=0;orthogonalLoop=1;jettySize=auto;html=1;entryX=0.5;entryY=0;entryDx=0;entryDy=0;" parent="1" source="OV2K4uKmrnv4dOPww8TZ-22" target="OV2K4uKmrnv4dOPww8TZ-45" edge="1">
          <mxGeometry relative="1" as="geometry">
            <Array as="points">
              <mxPoint x="340" y="550" />
              <mxPoint x="158" y="550" />
            </Array>
          </mxGeometry>
        </mxCell>
        <mxCell id="B7G4OD0_tB4IIWVI6EO--23" style="edgeStyle=orthogonalEdgeStyle;rounded=0;orthogonalLoop=1;jettySize=auto;html=1;entryX=0.5;entryY=0;entryDx=0;entryDy=0;" parent="1" source="OV2K4uKmrnv4dOPww8TZ-24" target="OV2K4uKmrnv4dOPww8TZ-45" edge="1">
          <mxGeometry relative="1" as="geometry">
            <Array as="points">
              <mxPoint x="695" y="550" />
              <mxPoint x="158" y="550" />
            </Array>
          </mxGeometry>
        </mxCell>
        <mxCell id="B7G4OD0_tB4IIWVI6EO--24" style="edgeStyle=orthogonalEdgeStyle;rounded=0;orthogonalLoop=1;jettySize=auto;html=1;entryX=0.5;entryY=0;entryDx=0;entryDy=0;" parent="1" source="OV2K4uKmrnv4dOPww8TZ-21" target="OV2K4uKmrnv4dOPww8TZ-45" edge="1">
          <mxGeometry relative="1" as="geometry">
            <Array as="points">
              <mxPoint x="883" y="550" />
              <mxPoint x="158" y="550" />
            </Array>
          </mxGeometry>
        </mxCell>
        <mxCell id="s_q3_aRJQ0bNJkqGjv6M-3" style="edgeStyle=orthogonalEdgeStyle;rounded=0;orthogonalLoop=1;jettySize=auto;html=1;entryX=0.5;entryY=0;entryDx=0;entryDy=0;" parent="1" target="s_q3_aRJQ0bNJkqGjv6M-1" edge="1">
          <mxGeometry relative="1" as="geometry">
            <mxPoint x="158" y="900" as="sourcePoint" />
            <mxPoint x="167" y="879" as="targetPoint" />
          </mxGeometry>
        </mxCell>
        <mxCell id="s_q3_aRJQ0bNJkqGjv6M-44" value="Administrator" style="shape=umlActor;verticalLabelPosition=bottom;verticalAlign=top;html=1;outlineConnect=0;" parent="1" vertex="1">
          <mxGeometry x="1030" y="140" width="50" height="110" as="geometry" />
        </mxCell>
        <mxCell id="s_q3_aRJQ0bNJkqGjv6M-45" value="User" style="shape=umlActor;verticalLabelPosition=bottom;verticalAlign=top;html=1;outlineConnect=0;" parent="1" vertex="1">
          <mxGeometry x="140" y="160" width="50" height="100" as="geometry" />
        </mxCell>
        <mxCell id="4KX7OS3BSDdVtBE7u6EJ-2" style="edgeStyle=orthogonalEdgeStyle;rounded=0;orthogonalLoop=1;jettySize=auto;html=1;entryX=0.5;entryY=0;entryDx=0;entryDy=0;" edge="1" parent="1" target="OV2K4uKmrnv4dOPww8TZ-81">
          <mxGeometry relative="1" as="geometry">
            <mxPoint x="1257" y="770" as="sourcePoint" />
            <mxPoint x="1268" y="751" as="targetPoint" />
          </mxGeometry>
        </mxCell>
      </root>
    </mxGraphModel>
  </diagram>
</mxfile>
